<svg width="24" height="24" viewBox="0 0 24 24" fill="none" xmlns="http://www.w3.org/2000/svg">
<path d="M21 5L19 12H7.37671M20 16H8L6 3H3" stroke="#4CAF50" stroke-width="1.5" stroke-linecap="round" stroke-linejoin="round"/>
<path d="M9 19.5C9 20.3284 8.32843 21 7.5 21C6.67157 21 6 20.3284 6 19.5C6 18.6716 6.67157 18 7.5 18C8.32843 18 9 18.6716 9 19.5Z" fill="#4CAF50"/>
<path d="M19.5 19.5C19.5 20.3284 18.8284 21 18 21C17.1716 21 16.5 20.3284 16.5 19.5C16.5 18.6716 17.1716 18 18 18C18.8284 18 19.5 18.6716 19.5 19.5Z" fill="#4CAF50"/>
<circle cx="12" cy="6" r="3" fill="#90EE90" opacity="0.3"/>
</svg>
