<svg width="24" height="24" viewBox="0 0 24 24" fill="none" xmlns="http://www.w3.org/2000/svg">
<path d="M12 22C17.5228 22 22 17.5228 22 12C22 6.47715 17.5228 2 12 2C6.47715 2 2 6.47715 2 12C2 17.5228 6.47715 22 12 22Z" fill="#4CAF50" opacity="0.2"/>
<path d="M8 12C8 9.79086 9.79086 8 12 8V8C14.2091 8 16 9.79086 16 12V12C16 14.2091 14.2091 16 12 16V16C9.79086 16 8 14.2091 8 12V12Z" stroke="#4CAF50" stroke-width="1.5"/>
<path d="M21 12H22M2 12H3M12 21V22M12 2V3M18.364 18.364L19.071 19.071M4.929 4.929L5.636 5.636M18.364 5.636L19.071 4.929M4.929 19.071L5.636 18.364" stroke="#4CAF50" stroke-width="1.5" stroke-linecap="round"/>
</svg>
