<svg width="24" height="24" viewBox="0 0 24 24" fill="none" xmlns="http://www.w3.org/2000/svg">
  <path opacity="0.4" d="M12 15C13.6569 15 15 13.6569 15 12C15 10.3431 13.6569 9 12 9C10.3431 9 9 10.3431 9 12C9 13.6569 10.3431 15 12 15Z" fill="currentColor"/>
  <path d="M21.32 9.55L19.43 8.92C19.32 8.58 19.19 8.25 19.04 7.93L19.95 6.22C20.11 5.95 20.07 5.6 19.86 5.39L18.61 4.14C18.4 3.93 18.05 3.89 17.78 4.05L16.07 4.96C15.75 4.81 15.42 4.68 15.08 4.57L14.45 2.68C14.36 2.39 14.1 2.19 13.8 2.19H11.2C10.9 2.19 10.64 2.39 10.55 2.68L9.92 4.57C9.58 4.68 9.25 4.81 8.93 4.96L7.22 4.05C6.95 3.89 6.6 3.93 6.39 4.14L5.14 5.39C4.93 5.6 4.89 5.95 5.05 6.22L5.96 7.93C5.81 8.25 5.68 8.58 5.57 8.92L3.68 9.55C3.39 9.64 3.19 9.9 3.19 10.2V12.8C3.19 13.1 3.39 13.36 3.68 13.45L5.57 14.08C5.68 14.42 5.81 14.75 5.96 15.07L5.05 16.78C4.89 17.05 4.93 17.4 5.14 17.61L6.39 18.86C6.6 19.07 6.95 19.11 7.22 18.95L8.93 18.04C9.25 18.19 9.58 18.32 9.92 18.43L10.55 20.32C10.64 20.61 10.9 20.81 11.2 20.81H13.8C14.1 20.81 14.36 20.61 14.45 20.32L15.08 18.43C15.42 18.32 15.75 18.19 16.07 18.04L17.78 18.95C18.05 19.11 18.4 19.07 18.61 18.86L19.86 17.61C20.07 17.4 20.11 17.05 19.95 16.78L19.04 15.07C19.19 14.75 19.32 14.42 19.43 14.08L21.32 13.45C21.61 13.36 21.81 13.1 21.81 12.8V10.2C21.81 9.9 21.61 9.64 21.32 9.55ZM12 16C9.79 16 8 14.21 8 12C8 9.79 9.79 8 12 8C14.21 8 16 9.79 16 12C16 14.21 14.21 16 12 16Z" fill="currentColor"/>
</svg>
